<?xml version="1.0" encoding="utf-8"?>
<!-- Generator: Adobe Illustrator 16.0.0, SVG Export Plug-In . SVG Version: 6.00 Build 0)  -->
<!DOCTYPE svg PUBLIC "-//W3C//DTD SVG 1.1//EN" "http://www.w3.org/Graphics/SVG/1.1/DTD/svg11.dtd">
<svg version="1.1" id="Layer_1" xmlns="http://www.w3.org/2000/svg" xmlns:xlink="http://www.w3.org/1999/xlink" x="0px" y="0px"
	 width="864px" height="864px" viewBox="0 0 864 864" enable-background="new 0 0 864 864" xml:space="preserve">
<path fill-rule="evenodd" clip-rule="evenodd" d="M310.823,400.143c-2.572,5.149-5.116,10.312-7.724,15.443
	c-2.411,4.746-4.598,9.638-7.395,14.147c-9.221,14.869-20.696,19.419-37.404,14.302c-7.315-2.24-14.222-5.815-21.313-8.784
	c0.04-0.444,0.08-0.889,0.119-1.333c1.476-0.436,2.943-0.906,4.429-1.3c14.465-3.84,26.38-12.179,37.999-21.179
	c10.315-7.989,20.927-15.595,31.372-23.416c0.656-0.491,1.007-1.39,0.864-2.966c-2.368,1.148-4.918,2.026-7.072,3.489
	c-11.089,7.526-22.106,15.159-33.09,22.842c-11.019,7.706-22.113,15.214-35.643,17.917c-11.724,2.342-22.459-0.048-33.301-7.031
	c4.919-0.756,9.018-1.247,13.059-2.032c14.688-2.854,28.018-9.172,40.986-16.348c16.966-9.386,33.419-19.84,52.418-24.964
	c0.4-0.107,0.668-0.701,2.22-2.43c-3.011,0.2-4.881-0.112-6.381,0.492c-11.613,4.679-23.242,9.338-34.699,14.384
	c-16.019,7.057-31.713,14.881-47.895,21.526c-9.875,4.056-20.51,6.358-31.289,3.589c-4.824-1.24-9.351-3.641-14.012-5.514
	c0.144-0.484,0.286-0.967,0.429-1.451c7.198-0.907,14.459-1.475,21.583-2.786c19.779-3.646,37.814-12.294,56.145-20.073
	c15.668-6.648,31.476-12.888,48.363-15.829c0.585-0.102,1.101-0.599,1.649-0.911c-0.039-0.482-0.078-0.965-0.117-1.447
	c-1.932,0-4.018-0.483-5.773,0.075c-19.286,6.129-38.615,12.147-57.742,18.749c-17.703,6.11-35.147,13.056-53.891,15.369
	c-11.938,1.474-23.724,0.976-34.685-4.865c-1.595-0.85-3.082-1.902-4.619-2.861c0.083-0.53,0.165-1.06,0.248-1.589
	c6.247,0,12.516,0.346,18.736-0.064c20.278-1.338,39.348-7.826,58.355-14.372c22.307-7.683,44.871-14.155,68.491-16.256
	c0.411-0.036,0.793-0.39,1.189-0.596c-0.054-0.52-0.108-1.04-0.162-1.561c-6.6,0.621-13.358,0.539-19.77,1.988
	c-23.271,5.259-46.351,11.376-69.65,16.497c-17.92,3.938-35.953,7.758-54.137,10c-18.994,2.341-37.441-0.546-53.37-12.603
	c-0.668-0.505-1.299-1.061-3.179-2.604c4.63,0.622,7.866,1.07,11.105,1.492c28.21,3.678,55.871-0.228,83.5-5.631
	c23.09-4.516,46.292-8.466,69.481-12.462c5.333-0.92,10.812-1.008,16.223-1.479c-0.054-0.628-0.107-1.257-0.161-1.886
	c-13.829,1.115-27.717,1.753-41.477,3.439c-34.454,4.222-68.788,9.487-103.29,13.206c-19.839,2.14-39.911,1.838-59.281-4.503
	c-11.296-3.698-20.812-9.81-26.454-20.775c-0.31-0.603-0.563-1.236-0.805-1.87c-0.044-0.116,0.094-0.303,0.238-0.713
	c16.138,12.999,35.5,14.403,54.891,14.899c25.534,0.652,50.819-2.608,75.985-6.525c32.086-4.995,64.058-10.764,96.206-15.287
	c9.882-1.39,20.349-0.854,30.26,0.673c19.455,2.999,30.955,17.124,31.17,37.685c0.103,9.741-1.587,19.493-2.325,29.251
	c-0.906,11.99,0.397,23.407,9.244,32.661c0.356,0.372,0.836,0.687,1.046,1.13c1.182,2.493-5.449,16.851-8.021,17.949
	c-3.142,1.344-6.366,2.701-9.135,4.648c-2.438,1.716-4.176,1.888-6.803,0.354c-15.63-9.127-18.98-18.079-12.948-35.262
	c2.557-7.283,5.033-14.595,7.51-21.906c0.255-0.753,0.265-1.589,0.388-2.386C311.417,400.375,311.12,400.26,310.823,400.143z"/>
<path fill-rule="evenodd" clip-rule="evenodd" d="M564.293,361.99c10.373,1.832,20.952,2.902,31.073,5.661
	c18.364,5.005,36.494,10.893,54.65,16.638c19.129,6.052,38.529,10.198,58.729,9.557c0.813-0.026,1.63,0.073,3.571,0.171
	c-8.088,6.275-16.449,8.583-25.401,9.125c-18.091,1.098-35.028-4.124-51.824-9.835c-21.61-7.348-43.137-14.942-64.737-22.32
	c-3.558-1.216-7.281-2.031-10.988-2.697c-1.589-0.286-3.33,0.283-5.003,0.463c-0.022,0.491-0.046,0.98-0.069,1.471
	c2.065,0.479,4.196,0.768,6.184,1.467c17.62,6.203,35.454,11.887,52.757,18.883c22.357,9.041,44.473,18.464,69.281,18.899
	c-8.07,7.006-17.424,8.962-27.654,7.704c-13.494-1.659-25.807-6.934-38.006-12.539c-18.875-8.671-37.723-17.402-56.658-25.938
	c-3.103-1.397-6.597-1.926-9.91-2.856c-0.205,0.438-0.409,0.876-0.614,1.314c0.546,0.682,0.973,1.795,1.654,1.98
	c18.656,5.071,34.785,15.406,51.466,24.589c12.831,7.062,25.929,13.474,40.462,16.285c4.207,0.814,8.462,1.379,13.603,2.203
	c-6.637,4.824-13.512,7.142-21.001,7.821c-10.302,0.937-19.971-1.676-28.659-6.83c-10.028-5.951-19.525-12.803-29.239-19.284
	c-8.001-5.34-15.952-10.757-23.995-16.032c-1.777-1.164-3.85-1.878-6.811-3.285c0.723,1.818,0.791,2.762,1.29,3.135
	c11.261,8.448,22.687,16.682,33.836,25.272c12.186,9.39,24.906,17.602,41.733,20.837c-13.372,7.514-25.632,13.812-40.245,11.462
	c-8.149-1.312-14.072-6.517-18.188-13.323c-4.253-7.034-7.725-14.543-11.529-21.849c-1.722-3.31-3.422-6.632-6.283-9.487
	c1.214,4.007,2.308,8.057,3.673,12.012c1.959,5.679,4.365,11.215,6.135,16.948c3.474,11.253,0.809,19.152-8.489,26.34
	c-1.086,0.84-2.303,1.513-3.384,2.358c-3.651,2.859-6.512,2.716-11.237,0.597c-7.803-3.501-10.96-8.91-13.076-16.457
	c-1.125-4.016-0.716-6.45,1.377-10.125c3.131-5.499,5.667-11.928,6.22-18.157c0.718-8.112-1.102-16.414-1.195-24.641
	c-0.104-9.055-0.696-18.36,1.074-27.122c3.313-16.389,18.09-26.299,37.955-27.472c19.096-1.128,37.668,2.652,56.305,5.775
	c39.821,6.673,79.479,14.527,119.931,16.593c16.884,0.861,33.803,0.789,50.184-3.876c7.6-2.165,14.722-6.003,22.058-9.083
	c-2.456,5.961-7.023,10.824-12.697,14.747c-10.048,6.947-21.545,9.701-33.426,11.026c-26.566,2.964-52.895-0.085-79.176-3.587
	c-28.102-3.745-56.158-7.848-84.286-11.379c-6.925-0.87-14.052-0.13-21.161,0.576c5.391,0.477,10.849,0.567,16.161,1.495
	c24.863,4.343,49.716,8.763,74.518,13.452c22.718,4.295,45.507,7.329,68.685,5.571c6.442-0.489,12.85-1.454,20.43-2.335
	c-10.635,9.223-22.164,13.34-34.801,14.86c-23.365,2.812-45.831-2.408-68.24-7.828c-23.529-5.692-46.949-11.839-70.52-17.354
	c-7.146-1.672-14.625-1.955-21.964-2.752c-1.52-0.165-3.098,0.212-4.647,0.339C564.211,361.444,564.251,361.717,564.293,361.99z"/>
<path fill-rule="evenodd" clip-rule="evenodd" d="M338.231,457.824c2.388-7.471,4.449-13.919,6.711-20.996
	c8.917,5.879,16.934,11.697,25.457,16.642c9.481,5.501,19.176,10.779,29.219,15.139c21.163,9.188,42.846,9.148,63.398-1.114
	c15.91-7.943,30.735-18.062,46.011-27.266c2.043-1.229,3.901-2.764,6.788-4.83c2.362,6.778,4.552,13.062,6.966,19.992
	c-23.472,1.32-35.983,16.062-43.798,34.631c-9.967,23.683-18.104,48.145-26.687,72.392c-1.282,3.624-2.827,5.691-6.537,5.745
	c-9.422,0.137-18.853,0.355-28.258-0.005c-1.523-0.059-3.64-2.661-4.297-4.509c-6.903-19.398-13.412-38.938-20.384-58.311
	c-2.14-5.947-5.163-11.609-8.12-17.223C375.146,469.975,362.015,456.935,338.231,457.824z"/>
<path fill-rule="evenodd" clip-rule="evenodd" d="M347.561,433.592c5.245,1.682,10.312,3.631,15.543,4.916
	c11.744,2.891,22.208-0.229,29.855-9.332c7.145-8.503,13.183-17.966,19.362-27.236c3.323-4.986,6.292-10.291,8.736-15.759
	c2.266-5.067,6.383-4.39,10.376-4.434c3.897-0.044,7.38-0.071,9.9,4.433c6.449,11.527,12.978,23.113,20.664,33.823
	c13.814,19.25,27.692,22.358,49.281,12.439c0.581-0.267,1.234-0.382,1.921-0.588c0.062,0.539,0.225,1.005,0.106,1.093
	c-19.066,14.149-38.358,27.912-61.324,35.289c-17.852,5.735-35.245,3.936-52.357-3.056c-18.605-7.603-35.06-18.83-51.33-30.371
	C347.951,434.565,347.814,434.027,347.561,433.592z"/>
<path fill-rule="evenodd" clip-rule="evenodd" d="M409.403,144.853c2.661-14.153,5.32-28.307,8.032-42.736
	c-6.466-0.125-4.492-4.82-5.141-8.899c7.602-1.083,14.841-2.115,22.565-3.216c0.505,2.899,0.961,5.515,1.489,8.55
	c-5.132,0.149-5.83,3.4-6.513,7.436c-2.319,13.698-5.104,27.316-7.68,40.97c-0.283,1.5-0.363,3.039-0.567,4.824
	c1.458,0.259,2.738,0.487,4.108,0.731c0.418,2.485,0.814,4.833,1.365,8.104c-10.189,1.439-20.24,2.859-30.216,4.268
	c-2.417-7.808-2.417-7.808,1.902-10.121c-5.265-10.722-10.533-21.452-15.802-32.183c-0.35-0.011-0.699-0.021-1.049-0.033
	c-2.229,11.735-4.455,23.471-6.734,35.476c1.46,0.269,2.581,0.476,4.073,0.75c0.417,2.518,0.854,5.152,1.377,8.316
	c-10.391,1.415-20.34,2.77-31.047,4.228c1.209-3.666-4.757-8.098,3.292-9.733c-2.502-5.12-4.86-9.982-7.25-14.829
	c-4.704-9.542-9.562-19.01-14.061-28.646c-1.514-3.244-3.288-5.034-7.443-3.905c-0.49-2.825-0.941-5.422-1.508-8.69
	c7.941-1.102,15.495-2.15,23.529-3.265c0.516,2.857,0.961,5.322,1.461,8.093c-1.474,0.665-2.809,1.268-4.541,2.049
	c6.454,13.067,12.856,26.03,19.959,40.408c2.922-15.624,5.558-29.723,8.282-44.29c-6.309-0.071-4.148-5.003-5.663-8.881
	c8.851-1.245,17.107-2.405,25.793-3.626c0.246,3.738,4.396,7.572-2.256,9.974c6.454,13.129,12.84,26.118,19.226,39.106
	C408.727,145.005,409.064,144.929,409.403,144.853z"/>
<path fill-rule="evenodd" clip-rule="evenodd" d="M562.348,162.545c-4.017,6.913-7.719,13.285-11.579,19.928
	c1.121,1.06,2.187,2.067,3.614,3.419c-1.367,2.401-2.773,4.871-4.405,7.737c-6.742-3.917-13.197-7.667-20.138-11.699
	c1.573-2.763,2.973-5.226,4.584-8.058c1.487,0.72,2.783,1.349,4.419,2.142c8.957-15.431,17.815-30.695,26.789-46.154
	c-1.254-1.096-2.37-2.072-3.722-3.253c1.403-2.449,2.755-4.806,4.447-7.755c2.755,1.56,5.378,3.016,7.975,4.52
	c9.068,5.251,18.142,10.494,27.182,15.792c4.066,2.383,7.588,14.709,5.369,18.894c-1.77,3.339-3.156,7.183-5.78,9.682
	c-2.764,2.632-6.795,3.933-10.934,6.173c6.321,10.881-4.343,17.703-7.8,27.127c0.945,0.774,2.069,1.694,3.6,2.948
	c-1.381,2.373-2.808,4.825-4.58,7.868c-5.314-3.073-10.423-6.027-15.907-9.199c4.113-7.104,8.056-13.885,11.967-20.684
	c2.956-5.138,1.856-9.474-3.146-12.438C570.478,167.268,566.627,165.044,562.348,162.545z M577.564,136.314
	c-3.57,6.158-6.887,11.876-10.418,17.966c4.244,2.501,8.167,4.861,12.136,7.141c4.71,2.706,9.329,1.243,12.278-3.814
	c4.109-7.047,3.601-11.075-1.884-14.318C585.861,141.034,581.998,138.863,577.564,136.314z"/>
<path fill-rule="evenodd" clip-rule="evenodd" d="M515.886,176.557c-7.82-1.764-14.637-3.301-22.008-4.963
	c0.548-3.018,1.052-5.797,1.6-8.815c1.41,0,2.709,0,4.417,0c-0.179-1.938-0.661-3.637-0.422-5.229c0.972-6.467-2.32-9-8.199-9.405
	c-0.852-0.059-1.701-0.245-2.534-0.442c-12.012-2.83-12.011-2.833-18.143,8.288c1.161,0.63,2.32,1.26,3.719,2.018
	c-0.668,2.73-1.344,5.495-2.106,8.613c-7.287-1.674-14.218-3.266-21.635-4.969c1.613-3.624-0.623-8.837,5.753-9.133
	c0.521-0.024,1.025-1.288,1.467-2.018c8.812-14.528,17.616-29.062,26.409-43.602c0.333-0.551,0.535-1.182,0.894-1.994
	c-1.539-0.692-2.899-1.303-4.448-2c0.747-2.876,1.462-5.632,2.259-8.704c11.227,2.584,22.019,5.068,33.241,7.651
	c-0.632,3.154-1.188,5.936-1.788,8.937c-1.926-0.218-3.552-0.401-5.656-0.639c1.149,12.006,2.259,23.754,3.407,35.499
	c0.467,4.784,0.962,9.567,1.552,14.337c0.331,2.671-0.586,5.484,2.747,7.636C517.527,168.343,516.178,172.881,515.886,176.557z
	 M498.041,142.832c-0.888-9.119-1.724-17.723-2.712-27.898c-5.309,8.721-9.778,16.064-14.585,23.961
	C486.891,140.294,492.161,141.494,498.041,142.832z"/>
<path fill-rule="evenodd" clip-rule="evenodd" d="M396.433,625.598c13.984,0,27.68-0.207,41.361,0.128
	c4.006,0.099,11.621,10.743,11.546,14.913c-0.252,13.916-0.504,27.831-0.77,41.746c-0.078,4.112-8.548,13.991-12.494,14.039
	c-13.521,0.162-27.047,0.062-41.543,0.062c1.299-5.056-2.143-10.364,5.709-10.293c0-17.081,0-34.023,0-51.53 M413.889,687.164
	c4.955,0,10.199,0.699,15.1-0.297c2.432-0.495,5.882-3.994,6.04-6.326c0.872-12.85,1.237-25.77,0.85-38.637
	c-0.074-2.496-3.895-6.301-6.618-6.98c-4.64-1.159-9.779-0.318-15.371-0.318C413.889,652.146,413.889,669.252,413.889,687.164z"/>
<path fill-rule="evenodd" clip-rule="evenodd" d="M329.212,609.009c13.204,3.47,25.988,6.754,38.721,10.219
	c4.019,1.093,10.062,12.478,8.994,16.549c-3.655,13.929-7.333,27.852-11.058,41.762c-1.359,5.078-12.086,11.229-17.181,9.896
	c-12.415-3.247-24.819-6.535-37.671-9.924c0.665-2.943,1.253-5.549,1.921-8.505c1.607,0.116,3.016,0.22,4.904,0.355
	c4.392-16.484,8.793-33.001,13.257-49.755c-1.429-0.755-2.739-1.449-4.369-2.312C327.546,614.569,328.358,611.859,329.212,609.009z
	 M330.496,673.104c5.206,1.406,9.473,2.65,13.79,3.694c4.309,1.042,8.33-1.204,9.476-5.382c3.309-12.068,6.828-24.099,9.46-36.316
	c0.533-2.476-1.735-7.149-3.988-8.291c-4.562-2.313-9.999-2.901-15.343-4.268C339.35,639.686,334.977,656.191,330.496,673.104z"/>
<path fill-rule="evenodd" clip-rule="evenodd" d="M419.749,384.201c-9.2,13.606-17.719,27.742-27.786,40.674
	c-10.704,13.75-27.134,13.948-42.8,4.52c15.792-26.377,38.706-41.817,68.812-46.729
	C418.565,383.177,419.157,383.689,419.749,384.201z"/>
<path fill-rule="evenodd" clip-rule="evenodd" d="M511.239,428.163c-13.619,8.514-29.534,8.472-40.84-3.414
	c-7.241-7.614-22.188-30.297-26.633-41.388C466.61,383.203,500.365,405.616,511.239,428.163z"/>
<path fill-rule="evenodd" clip-rule="evenodd" d="M341.993,504.297c8.085,4.053,16.208,9.131,25.024,12.244
	c7.634,2.695,16.024,3.384,24.144,4.499c3.094,0.426,4.922,1.155,5.905,4.365c2.349,7.675,5.076,15.233,7.723,23.056
	C373.727,546.332,347.241,532.644,341.993,504.297z"/>
<path fill-rule="evenodd" clip-rule="evenodd" d="M519.814,503.989c-7.199,27.105-30.214,43.501-59.153,42.563
	c2.888-8.388,5.646-16.616,8.63-24.762c0.34-0.928,1.943-1.965,2.976-1.98C489.445,519.526,504.869,513.875,519.814,503.989z"/>
<path fill-rule="evenodd" clip-rule="evenodd" d="M488.66,618.09c-0.034,3.868,4.587,8.097-2.623,10.419
	c3.481,16.671,6.968,33.373,10.495,50.263c1.709,0.117,3.183,0.218,4.853,0.332c0.57,2.646,1.106,5.131,1.791,8.302
	c-7.253,1.559-14.361,3.085-21.859,4.695c-0.447-3.966-4.771-8.176,2.395-10.486c-3.488-16.653-6.959-33.219-10.495-50.095
	c-1.551-0.115-3.015-0.224-4.828-0.357c-0.55-2.616-1.101-5.234-1.763-8.388C474.058,621.193,481.159,619.684,488.66,618.09z"/>
<path fill-rule="evenodd" clip-rule="evenodd" d="M337.841,484.24c5.458,1.843,10.792,4.377,16.397,5.362
	c8.054,1.414,16.294,1.916,24.479,2.352c2.906,0.156,4.754,0.58,5.958,3.481c3.009,7.255,6.292,14.396,9.768,22.268
	c-9.385,0.688-17.767-0.439-25.668-3.718c-6.786-2.817-13.148-6.639-19.847-9.689C340.296,500.363,337.034,493.625,337.841,484.24z"
	/>
<path fill-rule="evenodd" clip-rule="evenodd" d="M523.854,484.317c-0.239,8.623-1.157,15.538-9.901,19.959
	c-13.352,6.752-26.664,12.584-42.901,11.776c3.379-7.76,6.569-15.244,9.955-22.639c0.382-0.832,1.914-1.704,2.842-1.633
	C497.694,492.856,510.765,489.633,523.854,484.317z"/>
<path fill-rule="evenodd" clip-rule="evenodd" d="M338.525,461.178c18.036-0.983,34.315,9.608,41.722,27.157
	c-8.535,1.157-16.745,0.144-24.875-2.004c-1.49-0.393-2.94-0.937-4.409-1.41C335.293,479.865,334.103,477.626,338.525,461.178z"/>
<path fill-rule="evenodd" clip-rule="evenodd" d="M524.078,459.229c0,7.366,0,14.499,0,21.632
	c-5.781,2.004-11.431,4.703-17.377,5.83c-7.146,1.354-14.547,1.367-22.218,1.991C489.329,472.291,507.135,458.85,524.078,459.229z"
	/>
<path fill-rule="evenodd" clip-rule="evenodd" d="M354.583,260.474c3.614,0.428,7.635-1.804,9.581,3.36
	c0.246,0.653,3.138,0.626,4.68,0.312c0.594-0.121,1.452-2.527,1.135-2.849c-0.911-0.921-2.311-1.618-3.613-1.837
	c-2.17-0.365-4.566,0.175-6.594-0.496c-4.318-1.427-7.052-7.809-5.423-13.508c1.181-4.136,4.134-7.133,9.06-6.497
	c4.234,0.546,8.841,0.557,12.495,2.38c2.235,1.115,2.983,5.208,4.976,9.085c-5.413-0.159-9.497,2.522-11.481-3.188
	c-0.239-0.689-3.106-0.796-4.653-0.546c-0.654,0.105-1.717,2.354-1.428,2.727c0.785,1.014,2.108,1.903,3.369,2.196
	c2.778,0.647,5.986,0.234,8.406,1.461c3.861,1.959,6.069,9.141,4.033,13.104c-1.888,3.676-4.819,6.619-9.801,5.862
	c-2.182-0.332-4.457-0.018-6.689-0.061C356.864,271.869,353.905,267.917,354.583,260.474z"/>
<path fill-rule="evenodd" clip-rule="evenodd" d="M476.669,260.546c2.821,1.205,5.565,2.688,8.494,3.512
	c1.812,0.51,3.956,0.243,5.84-0.177c0.496-0.11,1.106-2.819,0.755-3.071c-1.312-0.943-3.098-2.062-4.533-1.865
	c-8.944,1.225-13.168-4.191-11.707-12.059c0.445-2.4,2.314-6.053,4.078-6.408c5.203-1.046,10.934-1.801,15.971-0.609
	c4.196,0.992,5.845,5.604,5.305,10.506c-0.449,4.069-0.067,8.228-0.102,12.347c-0.051,6.11-3.277,9.422-9.471,9.2
	c-4.145-0.149-8.597-0.13-12.274-1.689c-2.18-0.925-3.12-4.772-4.616-7.305C475.161,262.134,475.914,261.34,476.669,260.546z
	 M487.763,252.837c3.237-0.837,2.971-2.801,4.103-3.87c-3-1.824,2.021-2.125-3.78-2.129c-4.211-0.001-0.062-0.131-3.797,2.118
	C485.213,249.989,485,252,487.763,252.837z"/>
<path fill-rule="evenodd" clip-rule="evenodd" d="M351.174,262.842c0,3.512,0,5.884,0,8.702c-8.003,0-15.921,0-24.897,0
	c3.398-10.734,3.683-21.332-0.182-32.264c8.872,0,16.678,0,24.874,0c0,2.617,0,5.228,0,8.74c-4.213-0.605-8.102-1.164-12.451-1.788
	c-0.167,1.61-0.314,3.038-0.47,4.551c2.781-0.18,5.219-0.338,8.132-0.527c0,3.384,0,6.514,0,9.988c-2.496,0-5.071,0-7.857,0
	c0,1.132,0,2.446,0,4.417C342.503,264.069,346.498,263.504,351.174,262.842z"/>
<path fill-rule="evenodd" clip-rule="evenodd" d="M447.29,257.142c1.305-6.464-1.517-11.947,3.699-15.945
	c5.176-3.967,11.027-2.519,16.165-1.461c4.185,0.862,6.087,5.35,5.551,10.328c-0.457,4.243-0.071,8.574-0.1,12.865
	c-0.039,5.84-3.26,9.206-9.114,9c-4.895-0.172-11.016,2.165-13.866-3.708C447.808,264.475,447.811,259.847,447.29,257.142z
	 M463.619,255.791c0.011,0,0.021,0,0.031,0c0-1.875-0.097-3.758,0.023-5.625c0.17-2.683-1.024-3.655-3.595-3.384
	C458,247,457,248,457.058,250.094c-0.386,3.883-0.361,7.852,0.021,11.736c0.103,1.037,2.062,2.808,3.16,2.626
	c2.762-0.457,2.906-1.43,3.233-2.569C464.014,259.997,463.619,257.837,463.619,255.791z"/>
<path fill-rule="evenodd" clip-rule="evenodd" d="M503.807,271.716c-1.404-4.82-0.338-8.452,3.472-11.552
	c3.046-2.479,5.718-5.449,8.366-8.373c0.928-1.022,1.371-2.532,1.786-3.895c0.042-0.139-1.927-1.371-2.438-1.102
	c-1.135,0.595-1.962,1.801-2.858,2.807c-0.318,0.358-0.474,0.86-0.755,1.395c-2.409,0-4.785,0-7.128,0
	c-1.745-5.521-0.644-8.651,3.892-11.255c3.66-2.102,14.074-0.668,16.57,2.799c7.117,9.881-2.69,14.294-7.824,20.856
	c3.654,0.161,6.464,0.284,9.565,0.421c0,2.723,0,5.197,0,7.898C518.665,271.716,511.199,271.716,503.807,271.716z"/>
<path fill-rule="evenodd" clip-rule="evenodd" d="M390.013,271.682c0.791-8.357,1.559-16.458,2.34-24.687
	c-3.661,0.646-6.419,1.133-9.63,1.7c0-3.547,0-6.362,0-9.474c9.003,0,17.871,0,27.154,0c0,2.783,0,5.58,0,9.151
	c-2.917-0.264-5.763-0.522-9.435-0.854c0.606,7.679,1.251,15.835,1.91,24.165C398.241,271.682,394.21,271.682,390.013,271.682z"/>
<path fill-rule="evenodd" clip-rule="evenodd" d="M410.49,566.961c-18.612-4.122-33.684-12.827-45.804-24.941
	c9.654,2.816,19.87,6.938,30.468,8.537c8.823,1.33,13.623,4.622,14.438,13.444C409.652,564.66,409.974,565.294,410.49,566.961z"/>
<path fill-rule="evenodd" clip-rule="evenodd" d="M496.598,542.354c-11.102,10.992-24.912,19.228-41.915,23.831
	c1.526-4.93,2.606-9.365,4.362-13.516c0.528-1.252,2.843-2.07,4.489-2.476C474.776,547.432,486.06,544.833,496.598,542.354z"/>
<path fill-rule="evenodd" clip-rule="evenodd" d="M429.723,271.631c0.936-2.681-2.128-6.045,2.821-7.291
	c2.299-0.578,1.822-12.81-0.481-13.821c-3.854-1.692-2.612-4.157-1.096-6.398c3.039-4.49,4.934-5.192,11.665-4.719
	c0,6.709-0.17,13.51,0.115,20.291c0.074,1.769,1.786,3.41,2.346,5.231c0.617,2.014,0.775,4.168,1.21,6.707
	C440.611,271.631,435.562,271.631,429.723,271.631z"/>
<path fill-rule="evenodd" clip-rule="evenodd" d="M422.704,261.907c0,3.308,0,6.323,0,9.711c-3.22,0-6.358,0-9.884,0
	c0-3.042,0-6.178,0-9.711C415.879,261.907,419.014,261.907,422.704,261.907z"/>
<path fill-rule="evenodd" clip-rule="evenodd" d="M205.418,264.479c1.054-1.272,2.013-2.429,3.152-3.802
	c2.524,1.545,4.977,3.046,7.847,4.803c-3.987,6.551-7.881,12.95-12.101,19.882c-2.597-1.555-5.027-3.01-7.729-4.628
	c0.567-1.455,1.098-2.813,1.804-4.622c-6.158-3.776-12.392-7.598-18.962-11.625c-4.35,7.118-8.536,13.966-13.011,21.288
	c6.281,3.853,12.356,7.58,19.326,11.855c0.833-1.173,1.684-2.374,2.822-3.977c2.354,1.419,4.785,2.885,7.809,4.708
	c-4.04,6.652-7.912,13.027-12.076,19.884c-2.632-1.564-5.05-3.001-7.751-4.606c0.546-1.5,1.039-2.854,1.708-4.695
	c-14.99-9.154-30.028-18.337-45.312-27.671c-1.009,1.174-1.977,2.302-3.183,3.706c-2.461-1.468-4.913-2.931-7.789-4.646
	c4.047-6.68,7.924-13.079,12.092-19.958c2.649,1.621,5.066,3.099,7.795,4.768c-0.619,1.419-1.199,2.75-1.952,4.479
	c5.464,3.34,10.97,6.706,16.9,10.332c4.407-7.185,8.593-14.009,13.053-21.277c-5.717-3.489-11.248-6.866-16.959-10.353
	c-1.031,1.295-1.961,2.463-3.043,3.824c-2.553-1.547-4.992-3.025-7.838-4.75c4.042-6.667,7.923-13.068,12.092-19.943
	c2.592,1.576,5.016,3.051,7.651,4.654c-0.547,1.532-1.04,2.914-1.674,4.693C175.137,245.988,190.2,255.186,205.418,264.479z"/>
<path fill-rule="evenodd" clip-rule="evenodd" d="M669.264,524.604c-5.429-3.936-10.283-7.454-15.395-11.158
	c-1.151,1.073-2.227,2.072-3.536,3.294c-2.155-1.535-4.363-3.107-7.175-5.112c4.361-6.103,8.597-12.026,13.178-18.438
	c2.516,1.823,4.796,3.477,7.248,5.254c-0.77,1.396-1.404,2.546-2.28,4.136c13.915,10.042,27.799,20.062,41.892,30.231
	c1.164-1.072,2.253-2.076,3.536-3.258c2.182,1.55,4.396,3.121,7.106,5.047c-4.382,6.145-8.614,12.077-13.155,18.444
	c-2.499-1.808-4.783-3.459-7.239-5.235c0.737-1.383,1.357-2.549,2.211-4.149c-5.611-4.083-11.273-8.204-17.51-12.742
	c-4.655,6.446-9.223,12.772-14.174,19.627c5.808,4.237,11.434,8.344,17.393,12.694c1.1-1.027,2.15-2.009,3.559-3.324
	c2.144,1.537,4.325,3.101,7.094,5.085c-4.388,6.116-8.631,12.027-13.173,18.358c-2.498-1.755-4.689-3.294-7.163-5.031
	c0.667-1.408,1.288-2.722,2.074-4.381c-13.858-9.998-27.768-20.034-42.491-30.656c-0.647,1.35-1.321,2.754-2.077,4.328
	c-3.061-2.205-5.261-3.789-7.888-5.681c4.396-6.116,8.661-12.051,13.142-18.285c2.501,1.741,4.715,3.282,7.219,5.023
	c-0.656,1.386-1.274,2.688-2.063,4.352c4.95,3.587,9.932,7.198,15.497,11.231C659.783,537.752,664.35,531.42,669.264,524.604z"/>
<path fill-rule="evenodd" clip-rule="evenodd" d="M662.574,267.81c2.374,4.462,4.296,8.071,6.193,11.637
	c-7.264,5.835-7.682,7.81-3.264,16.034c1.527,2.842,2.792,6.136,5.104,8.17c3.313,2.915,10.903,1.333,15.38-3.136
	c3.266-3.26,3.825-7.363,0.981-11.601c-1.616-2.409-2.458-5.359-4.177-7.674c-4.388-5.917-4.842-11.843-1.903-18.626
	c1.432-3.304,2.546-6.211,6.217-7.45c1.442-0.487,2.958-1.17,4.066-2.176c7.203-6.538,14.641-3.284,21.958-0.495
	c1.362,0.519,2.475,2.237,3.255,3.649c3.401,6.159,6.38,12.566,10.023,18.574c2.627,4.333,2.646,8.225,1.201,12.995
	c-1.769,5.836-4.298,10.307-11.192,11.738c-1.887-3.522-3.936-7.348-5.968-11.14c7.518-4.702,8.161-9.779,3.793-16.07
	c-2.535-3.653-3.231-9.817-8.936-9.248c-4.425,0.442-9.273,2.487-12.699,5.314c-3.033,2.503-2.904,6.938-0.251,10.761
	c1.845,2.659,2.856,5.892,4.661,8.585c3.611,5.39,4.203,10.63,1.756,16.874c-1.616,4.126-3.33,7.284-7.573,8.853
	c-1.754,0.648-3.536,1.5-4.972,2.668c-7.261,5.905-13.87,0.652-20.689-1.039c-0.151-0.038-0.323-0.178-0.396-0.317
	c-4.916-9.229-10.655-18.152-14.297-27.861c-1.343-3.583,1.663-9.332,3.836-13.492C655.906,270.992,659.476,269.871,662.574,267.81z
	"/>
<path fill-rule="evenodd" clip-rule="evenodd" d="M302.988,136.918c-4.06,2.104-7.828,4.056-11.838,6.133
	c-1.036-1.875-1.75-3.654-2.879-5.113c-2.507-3.241-5.847-4.661-9.791-2.973c-3.303,1.413-6.458,3.194-9.604,4.946
	c-3.684,2.051-5.183,6.724-3.231,10.561c5.836,11.479,11.751,22.918,17.733,34.321c1.714,3.267,6.765,4.766,10.12,3.151
	c3.089-1.488,6.126-3.092,9.137-4.736c4.129-2.254,5.562-6.664,3.498-10.824c-1.59-3.207-3.318-6.345-5.126-9.781
	c-1.769,0.797-3.268,1.474-5.278,2.38c-1.169-2.151-2.269-4.174-3.661-6.734c5.855-3.076,11.379-5.979,17.361-9.123
	c3.829,7.391,7.703,14.425,11.127,21.672c1.66,3.511-3.549,15.698-7.033,17.522c-7.147,3.744-14.3,7.478-21.481,11.157
	c-4.903,2.513-17.173-1.53-19.744-6.49c-6.321-12.194-12.441-24.497-19.004-36.561c-2.15-3.954-2.284-7.312-1-11.573
	c1.78-5.909,4.295-10.325,10.505-12.636c5.268-1.961,10.195-4.936,15.081-7.792c3.52-2.057,6.751-2.4,10.674-1.037
	C297.995,126.668,298.056,126.493,302.988,136.918z"/>
<path fill-rule="evenodd" clip-rule="evenodd" d="M258.208,577.958c-1.045-1.229-1.899-2.231-3.063-3.6
	c1.831-2.21,3.631-4.381,5.656-6.824c6.002,5.018,11.628,9.722,17.366,14.519c-1.98,2.428-3.71,4.548-5.583,6.844
	c-1.314-0.787-2.597-1.556-4.133-2.476c-9.852,11.82-19.615,23.571-29.421,35.285c-4.746,5.669-16.349,6.465-22.082,1.632
	c-5.128-4.323-10.289-8.606-15.468-12.867c-5.708-4.696-6.891-16.278-2.105-22.065c9.642-11.665,19.35-23.274,29.218-35.131
	c-0.977-1.139-1.928-2.25-3.126-3.648c1.84-2.209,3.664-4.397,5.669-6.806c5.955,4.972,11.596,9.682,17.337,14.477
	c-1.99,2.447-3.715,4.569-5.566,6.845c-1.451-0.845-2.702-1.574-4.185-2.438c-9.736,11.676-19.485,23.006-28.747,34.723
	c-2.4,3.037-2.088,7.137,1.326,10.09c2.6,2.249,5.239,4.455,7.91,6.62c3.542,2.867,7.446,2.44,10.111-0.633
	C239.104,601.221,248.515,589.614,258.208,577.958z"/>
<path fill-rule="evenodd" clip-rule="evenodd" d="M641.129,590.547c9.605,5.818,7.026,14.104,5.769,22.004
	c-0.154,0.98-1.337,1.909-2.225,2.642c-5.966,4.922-11.964,9.806-17.985,14.661c-5.058,4.078-16.798,3.043-20.868-1.917
	c-9.051-11.029-18.044-22.105-27.021-33.194c-2.61-3.225-1.566-16.006,1.606-18.658c6.596-5.509,13.271-10.922,19.974-16.301
	c2.911-2.338,15.743-0.979,18.264,1.894c1.806,2.056,3.462,4.246,5.552,6.83c-1.727,1.465-3.354,2.881-5.021,4.249
	c-1.582,1.298-3.205,2.545-5.017,3.979c-0.995-1.08-1.73-2.386-2.845-2.987c-2.406-1.297-4.944-2.917-7.544-3.156
	c-3.917-0.364-13.587,8.779-13.78,12.737c-0.1,2.012,0.296,4.535,1.475,6.039c7.524,9.605,15.302,19.017,23.062,28.439
	c2.638,3.203,7.584,3.664,10.924,1.138c1.646-1.242,3.176-2.635,4.787-3.923c7.281-5.812,7.602-8.58,1.48-16.527
	C634.899,595.806,638.109,593.096,641.129,590.547z"/>
<path fill-rule="evenodd" clip-rule="evenodd" d="M614.109,228.552c1.264,1.089,2.373,2.046,3.694,3.185
	c12.946-12.289,25.771-24.464,38.976-37c-3.119-3.281-6.04-6.354-9.183-9.661c-1.347,0.852-2.576,1.63-4.135,2.616
	c-1.998-2.091-3.966-4.149-6.24-6.529c3.47-3.296,6.671-6.337,10.394-9.873c13.824,14.55,27.48,28.924,41.072,43.23
	c-3.344,3.554-6.471,6.878-9.76,10.375c-2.186-2.398-4.013-4.403-6.111-6.707c0.654-0.912,1.512-2.109,2.637-3.678
	c-2.953-3.133-5.968-6.331-9.254-9.818c-13.011,12.329-25.827,24.475-38.857,36.822c0.871,1.292,1.693,2.51,2.779,4.12
	c-2.007,1.902-4.064,3.855-6.614,6.273c-5.401-5.698-10.638-11.223-16.181-17.071C609.709,232.628,611.814,230.678,614.109,228.552z
	"/>
<path fill-rule="evenodd" clip-rule="evenodd" d="M563.784,656.184c1.559-0.437,2.828-0.792,4.489-1.258
	c1.204,2.506,2.367,4.926,3.806,7.921c-6.913,3.162-13.527,6.188-20.677,9.456c-1.29-2.73-2.432-5.146-3.724-7.883
	c1.245-0.904,2.421-1.758,3.954-2.869c-7.007-15.524-14.04-31.109-21.312-47.223c-4.001,1.725-7.698,3.316-11.645,5.016
	c0.308,1.611,0.579,3.035,0.917,4.809c-2.431,1.113-4.873,2.232-7.914,3.625c-1.928-4.272-3.718-8.241-5.738-12.721
	c17.851-8.082,35.281-15.974,53.14-24.059c1.923,4.223,3.739,8.21,5.793,12.717c-2.776,1.258-5.201,2.356-7.885,3.572
	c-0.942-1.382-1.765-2.591-2.701-3.965c-3.885,1.761-7.602,3.446-11.905,5.397C549.565,624.648,556.644,640.348,563.784,656.184z"/>
<path fill-rule="evenodd" clip-rule="evenodd" d="M175.636,570.051c-3.094-0.438-5.401-0.765-7.951-1.126c0-1.739,0-3.19,0-4.869
	c-1.171-0.301-2.116-0.697-3.084-0.767c-4.874-0.351-8.55-2.161-11.221-6.676c-3.487-5.896-7.761-11.326-11.638-16.996
	c-2.851-4.17-0.639-16.613,3.479-19.503c11.524-8.088,23.064-16.152,34.631-24.179c5.099-3.539,16.776-1.442,20.318,3.598
	c4.443,6.324,8.874,12.656,13.258,19.021c2.867,4.162,0.675,16.584-3.473,19.519c-7.428,5.257-14.939,10.396-22.365,15.655
	C181.849,557.795,174.403,560.549,175.636,570.051z M180.506,542.452c7.209-5.014,13.716-9.432,20.067-14.065
	c1.088-0.795,1.809-2.426,2.182-3.811c1.74-6.445-3.763-9.834-6.445-14.34c-2.327-3.907-7.338-4.628-11.062-2.049
	c-10.02,6.94-20.065,13.847-29.915,21.021c-1.54,1.12-2.573,3.466-3.025,5.434c-0.769,3.343,6.293,14.896,9.402,16.066
	c5.653,2.128,8.185,0.713,9.387-5.242c0.739-3.659,1.487-7.316,2.32-11.411c2.762,0.481,5.212,0.909,7.857,1.37
	C181.024,537.704,180.825,539.531,180.506,542.452z"/>
<path fill-rule="evenodd" clip-rule="evenodd" d="M227.811,244.794c-6.045,1.245-10.12-1.514-14.04-6.097
	c-8.479-9.912-17.647-19.232-26.25-29.042c-1.571-1.792-2.158-4.702-2.581-7.2c-1.455-8.604,2.663-14.618,9.381-19.412
	c2.222-1.585,4.387-3.419,6.087-5.534c5.083-6.321,11.323-9.149,19.298-6.825c2.587,0.754,5.566,1.678,7.322,3.52
	c9.833,10.313,19.354,20.925,28.969,31.447c3.866,4.231,3.421,16.741-0.801,20.705c-5.132,4.819-10.521,9.376-15.477,14.366
	C236.326,244.138,232.787,246.226,227.811,244.794z M229.135,233.03c2.516-0.247,4.293,0.121,5.158-0.601
	c3.809-3.184,8.003-6.243,10.723-10.252c1.337-1.972,0.933-6.899-0.677-8.801c-8.426-9.957-17.438-19.421-26.365-28.948
	c-2.758-2.943-7.518-2.945-10.565-0.296c-2.591,2.252-5.146,4.552-7.62,6.933c-3.324,3.199-3.472,8.379-0.332,11.817
	c8.341,9.131,16.671,18.272,25.15,27.275C225.982,231.615,228.088,232.385,229.135,233.03z"/>
<path fill-rule="evenodd" clip-rule="evenodd" d="M293.219,590.182c6.698,3.424,13.088,6.69,20.01,10.229
	c-1.332,2.704-2.567,5.213-3.992,8.104c-1.523-0.634-2.836-1.182-4.423-1.843c-7.907,15.482-15.69,30.723-23.596,46.203
	c1.297,1,2.461,1.897,3.796,2.928c-1.308,2.563-2.54,4.977-3.964,7.766c-6.751-3.463-13.227-6.784-20.072-10.296
	c1.403-2.766,2.616-5.156,3.981-7.846c1.602,0.508,2.991,0.948,4.549,1.441c7.781-15.229,15.501-30.338,23.37-45.74
	c-1.104-1.014-2.173-1.994-3.623-3.324C290.515,595.383,291.815,592.881,293.219,590.182z"/>
</svg>
