<svg xmlns="http://www.w3.org/2000/svg" width="30" height="30" viewBox="0 0 30 30"><path d="M10.034,24.718c0,.124-.139.223-.315.223-.2.019-.339-.081-.339-.223,0-.124.139-.223.315-.223C9.877,24.477,10.034,24.576,10.034,24.718Zm-1.881-.279c-.042.124.079.267.26.3a.281.281,0,0,0,.375-.124c.036-.124-.079-.267-.26-.323A.307.307,0,0,0,8.153,24.439Zm2.673-.105c-.175.043-.3.161-.278.3.018.124.175.2.357.161s.3-.161.278-.285S11,24.315,10.827,24.334ZM14.806.563C6.417.563,0,7.095,0,15.7A15.53,15.53,0,0,0,10.252,30.537c.774.143,1.046-.347,1.046-.751,0-.385-.018-2.506-.018-3.809,0,0-4.234.931-5.123-1.849,0,0-.69-1.805-1.681-2.27,0,0-1.385-.974.1-.955a3.18,3.18,0,0,1,2.335,1.6,3.153,3.153,0,0,0,4.409,1.3,3.482,3.482,0,0,1,.968-2.091c-3.381-.385-6.792-.887-6.792-6.855A4.763,4.763,0,0,1,6.919,11.2a6,6,0,0,1,.157-4.212c1.264-.4,4.173,1.675,4.173,1.675a13.945,13.945,0,0,1,7.6,0S21.756,6.58,23.02,6.989a6,6,0,0,1,.157,4.212,4.878,4.878,0,0,1,1.56,3.654c0,5.986-3.562,6.464-6.944,6.855a3.719,3.719,0,0,1,1.028,2.878c0,2.091-.018,4.677-.018,5.186,0,.4.278.893,1.046.751A15.39,15.39,0,0,0,30,15.7,15.012,15.012,0,0,0,14.806.563Zm-8.927,21.4c-.079.062-.06.2.042.323.1.1.236.143.315.062.079-.062.06-.2-.042-.323C6.1,21.921,5.958,21.877,5.879,21.958Zm-.653-.5c-.042.081.018.18.139.242a.177.177,0,0,0,.26-.043c.042-.081-.018-.18-.139-.242C5.365,21.375,5.268,21.393,5.226,21.455Zm1.96,2.208c-.1.081-.06.267.079.385.139.143.315.161.393.062.079-.081.042-.267-.079-.385C7.446,23.583,7.264,23.565,7.185,23.664Zm-.69-.912c-.1.062-.1.223,0,.366s.26.2.339.143a.288.288,0,0,0,0-.385C6.75,22.733,6.593,22.671,6.5,22.752Z" transform="translate(0 -0.563)" fill="#fff"/></svg>