<svg xmlns="http://www.w3.org/2000/svg" width="182.25" height="200" viewBox="0 0 182.25 200"><path d="M110.43,0c5.292.076,10.584.32,15.873.574,5.178.362,10.368-.013,15.549-.111-.048,1.732.029,3.467-.121,5.2a16.238,16.238,0,0,0,.136,5.357c1.316-.368,2.613-.8,3.957-1.04,2.15-.739,4.208-1.719,6.335-2.518,2.4-.32,4.483-1.97,6.966-1.811.79,1.491,2.581,2.1,3.174,3.727.945,1.129,2.232,2.027,2.835,3.432,2.039,1.811,3.329,4.313,5.371,6.121a9.858,9.858,0,0,0,2.559,3.137,9.282,9.282,0,0,0,2.055,2.728,8.384,8.384,0,0,1,1.706,2.344,11.3,11.3,0,0,1,2.568,3.137,28,28,0,0,1,2.093,3.023c.824,1.078.628,2.518.764,3.79-.279,2.318-.032,4.659-.3,6.978-.843,9.312-1.785,18.614-2.686,27.92-.073,2.287.038,4.573-.051,6.857-.923,1.037-2.178,1.757-2.889,2.978a1.678,1.678,0,0,1-.862.676c-1.449.691-2.432,2.081-3.957,2.645-2.581.971-4.864,2.728-7.632,3.168a41.168,41.168,0,0,1-9.347,2.4c-.685-.025-1.684.213-2.023-.574-.621-1.259-1.719-2.236-2.051-3.632a30.938,30.938,0,0,1-2.714-4.259c-.862-1.9-2.527-3.311-3.234-5.293-.691-1-1.351-2.014-1.988-3.045.691-.054,1.474.171,2.074-.3.507-.022,1.021-.029,1.535-.035a4.961,4.961,0,0,1,1.763,1.9c.457.977,1.5,1.434,2.14,2.261.587.612.837,1.5,1.589,1.96a14.328,14.328,0,0,1,2.375,2.6c1.4.488,2.115-1.208,2.66-2.182a9.619,9.619,0,0,0,2.578-3.8,389.287,389.287,0,0,0-1.712-46.23c-.279-3.5-1.1-6.943-1.154-10.454-.187-1.224-.517-2.426-.609-3.663-.6-.53-1.335-1.164-2.2-.923a21.327,21.327,0,0,1-5.092.869,42.448,42.448,0,0,0-6.586,1.821,36.243,36.243,0,0,0-.206,5.75c-.054,6.66.133,13.315.076,19.978-.035,9.727.143,19.452.076,29.182.663,14.076,1.725,28.129,2.7,42.186a42.989,42.989,0,0,1,.146,5.113c.051.584-.514.939-.793,1.376a17.819,17.819,0,0,1-2.235-4.263c-.682-1.909-2.051-3.47-2.7-5.395-.7-1.909-1.9-3.568-2.749-5.4-.225,18.059.073,36.128-.174,54.19-1.3-.555-1.868-1.874-2.584-2.988-.482-2.382-2.407-4.133-3.117-6.432-.453-1.4-1.5-2.493-2.077-3.835-.165,3.692-.65,7.371-.694,11.069.114,3.394-.342,6.765-.558,10.146-.637,8.053-1.284,16.106-2.1,24.142-.406,2.477.165,5.084-.856,7.453-.821-3.53-1.278-7.136-1.988-10.692-.317-1.332-.1-2.712-.377-4.044-.866-4.675-1.671-9.363-2.549-14.038-.2-1.123-.057-2.277-.285-3.4-.885-4.824-1.779-9.645-2.648-14.469a39.11,39.11,0,0,0-1.005-7.165q-.9-4.9-1.817-9.794a30.085,30.085,0,0,0-.3-3.463q-1.165-6.218-2.324-12.442c-.447-1.779-.216-3.644-.666-5.427a6.864,6.864,0,0,0,2.162,2.391c.954.539,1.17,1.748,2.074,2.353a7.075,7.075,0,0,1,2.2,2.287c.45.029.631-.187.545-.65-.26-3.178-1.015-6.318-.942-9.521-.783-5.883-1.731-11.741-2.7-17.593-.216-1.1-.019-2.242-.257-3.343-.92-5.22-1.839-10.46-2.879-15.646-3.2-.653-6.579.308-9.645,1.357a29.259,29.259,0,0,1-2.892,1.018,3.343,3.343,0,0,0-1.512.637,8.024,8.024,0,0,0-.212,2.851c-.057,10.355.14,20.708.082,31.06.146,10.679.048,21.364.076,32.043A27.882,27.882,0,0,0,98.587,157.7a8.123,8.123,0,0,0,3.149,4.171c.872.78,1.988,1.189,2.923,1.874a3.752,3.752,0,0,1,.022,1.468,1.967,1.967,0,0,1-1.83.463,45.216,45.216,0,0,0-8.938-1.088c-9.553-1.123-19.262-1.63-28.834-.4-.615-.063-.542-.739-.675-1.17a4.433,4.433,0,0,0-.907-1.545,38.729,38.729,0,0,1,3.982-2.724c.926-1,1.883-1.966,2.809-2.965.39-1.126,1.005-2.154,1.493-3.235a23.936,23.936,0,0,0,1.57-8.576c1.252-12.75,1.138-25.589.732-38.38-.111-4.472-.466-8.931-.758-13.387-1.227.9-2.407,1.881-3.643,2.759-1.37.251-2.359,1.281-3.615,1.792-1.214.523-2.311,1.332-3.678,1.392a61.4,61.4,0,0,1-7.48,2.642,16.07,16.07,0,0,0-3.611.622c.162,14.923.219,29.848.45,44.771-.12,1.5.809,2.724,1.449,3.99,1.719.882,2.873,2.747,4.845,3.115.244.181.488.368.732.555-.022.517-.041,1.037-.07,1.557-4.461-1.56-9.217-1.862-13.9-2.2-5.4.1-10.784-.33-16.18-.4-4.3-.121-8.6-.187-12.908-.168-.032-.739-.079-1.475-.108-2.211a10.261,10.261,0,0,0,4.15-2.008,13.882,13.882,0,0,0,4.661-4.212,12.246,12.246,0,0,0,1.671-4.646c.688-5.68.552-11.412.71-17.117-.016-6.258-.054-12.512-.225-18.767-1.766-.875-3.535-1.754-5.238-2.737a5.583,5.583,0,0,1-2.581-1.015c-1.018-.641-2.15-1.072-3.174-1.7a7.6,7.6,0,0,1-2.175-.891c-1.056-.764-2.267-1.281-3.313-2.055-1.563-.821-2.489-2.376-3.669-3.616-.625-.758-1.17-1.576-1.8-2.331-.615-1.779-2.1-3.061-2.768-4.811C1.325,82.986.447,81.606,0,80.049a17.842,17.842,0,0,1,7.277-2.426c2.984-.688,5.986-1.3,9.018-1.738.929-.035.647,1.043.295,1.535-1.122.647-2.321,1.17-3.38,1.928a6.383,6.383,0,0,1-2.682,1.3c-1.557,1.075-3.231,1.97-4.7,3.184A21.159,21.159,0,0,1,7.7,85.742c.634.777,1.731.869,2.416,1.579C11.792,88.955,14.1,89.64,15.974,91a9.225,9.225,0,0,0,2.7,1.373c2.521.974,4.75,3.352,7.641,2.848.082-5.737-.136-11.472-.3-17.206-.4-12.471-.894-24.939-1.4-37.4-.209-3.4-.073-6.8-.12-10.2a5.045,5.045,0,0,0-.961-2.582c-1.332-2.515-3.89-4.088-6.44-5.151a1.812,1.812,0,0,1,1.665-1.434c5.286.374,10.593.247,15.888.152,6.541-.136,13.076-.419,19.614-.641q-.052,1.023-.171,2.039l-.856.409a22.443,22.443,0,0,0-2.518,3.264c-.916,1.729-.368,3.717-.574,5.573-.136,7.923.114,15.842.041,23.765-.054,9.734.45,19.458.8,29.182.12,2.252.174,4.51.415,6.756a20.889,20.889,0,0,0,4.347-1.71c.831-.707,2.029-.58,2.863-1.291.967-.809,2.181-1.246,3.142-2.065,2.105-.511,3.345-2.572,5.425-3.165,1.164-1.009,2.483-1.821,3.659-2.813a12.881,12.881,0,0,0,2.486-1.722c.029-7.729,0-15.459.016-23.188Q72.882,38.01,71.4,20.267a14.15,14.15,0,0,0-1-3.032c-.9-.5-1.734-1.113-2.667-1.56-.311-.669-1.379-1.665-.431-2.252,3.548.8,7.182.428,10.78.618,4.873.26,9.744-.127,14.617-.1,2.847-.136,5.679-.58,8.526-.685.146.1.441.3.59.406-.812,1.034-1.918,1.843-2.48,3.07-.98,2.287-2.289,4.418-3.079,6.79-.869,6.077-.751,12.239-.8,18.364-.044,6.026.057,12.049.1,18.075.14,3.9.032,7.8.282,11.7a62.582,62.582,0,0,1,10.181-1.932,9.079,9.079,0,0,1,7.635,1.205,4.665,4.665,0,0,1,2.1.84,28.23,28.23,0,0,0,3.71,2.268,54.508,54.508,0,0,1-.479-7.149c-.691-6.7-1.712-13.349-2.714-20-.206-1.2-.051-2.423-.193-3.625q-1.355-9.182-2.67-18.364c-.209-1.218-.022-2.464-.216-3.682q-1.2-8.387-2.422-16.768A20.775,20.775,0,0,1,110.43,0Z" transform="translate(0 0)" fill="#fff"/></svg>