<svg xmlns="http://www.w3.org/2000/svg" xmlns:xlink="http://www.w3.org/1999/xlink" width="167.38" height="100.547" viewBox="0 0 167.38 100.547"><defs><clipPath id="a"><path d="M93.584,382.547,139.3,358.135l.026-50.275L93.637,282l-45.72,24.414-.028,50.273,45.694,25.861" transform="translate(-47.89 -282)"/></clipPath></defs><g transform="translate(-47.89 -282)"><g transform="translate(47.89 282)"><g transform="translate(0 0)"><g clip-path="url(#a)"><path d="M217.45,242.52l-15.4,7.361V350.635l15.4,5.641Z" transform="translate(-171.649 -250.004)" fill="#b2b2b2"/><path d="M279.64,267.23l15.3,2.677V370.661H279.658Z" transform="translate(-233.938 -270.03)" fill="#c92742"/><path d="M61.365,361.673H46.89V260.919l14.871-4.779Z" transform="translate(-47.087 -261.042)" fill="#b2b2b2"/><path d="M120.29,436.251l16.109-7.264V378.513l-15.91-8.413Z" transform="translate(-106.013 -353.399)" fill="#c92742"/><path d="M372.8,440l-15.514-8.03v-51.81l15.236-7.084Z" transform="translate(-296.275 -355.814)" fill="#b2b2b2"/><path d="M434.338,371.9l15.021-2.868V268.278L433.94,265.22Z" transform="translate(-357.81 -268.401)" fill="#c92742"/></g></g></g><g transform="translate(142.27 303.344)"><text transform="translate(0 23)" fill="#c92742" font-size="21" font-family="SegoeUI, Segoe UI"><tspan x="0" y="0">SUDO </tspan><tspan fill="#b2b2b2"><tspan x="0" y="22">SANINS</tspan></tspan></text></g></g></svg>