<svg xmlns="http://www.w3.org/2000/svg" width="30" height="26" viewBox="0 0 30 26"><path d="M-4.738,22.7a14.167,14.167,0,0,0,1.463.077,11.631,11.631,0,0,0,7.659-2.807A5.7,5.7,0,0,1,.8,18.672a6.4,6.4,0,0,1-2.171-3.251,5.451,5.451,0,0,0,1.146.1,5.679,5.679,0,0,0,1.634-.234A5.877,5.877,0,0,1-2.14,13.044a6.619,6.619,0,0,1-1.4-4.174V8.791a5.5,5.5,0,0,0,2.8.806A6.3,6.3,0,0,1-2.75,7.27a6.733,6.733,0,0,1-.744-3.132A6.7,6.7,0,0,1-2.64.836a17.38,17.38,0,0,0,5.6,4.85A16.5,16.5,0,0,0,10.043,7.7a7.842,7.842,0,0,1-.171-1.508,6.524,6.524,0,0,1,1.8-4.628,5.9,5.9,0,0,1,8.854.157,11.938,11.938,0,0,0,3.9-1.612,6.205,6.205,0,0,1-2.683,3.64,11.968,11.968,0,0,0,3.512-1.04,12.285,12.285,0,0,1-3.049,3.405v.859a19.97,19.97,0,0,1-.72,5.264,19.33,19.33,0,0,1-2.2,5.045,19.753,19.753,0,0,1-3.524,4.276,15.405,15.405,0,0,1-4.915,2.978,16.961,16.961,0,0,1-6.159,1.1A16.508,16.508,0,0,1-4.738,22.7Z" transform="translate(4.738 0.359)" fill="#fff"/></svg>